<svg xmlns="http://www.w3.org/2000/svg" width="321.09" height="165.285" viewBox="0 0 321.09 165.285">
  <g id="Group_82" data-name="Group 82" transform="translate(132.149 -3124)">
    <g id="Group_67" data-name="Group 67" transform="translate(-132.149 3124)">
      <rect id="Rectangle_61" data-name="Rectangle 61" width="31.104" height="58.063" transform="translate(0.061 107.222)" fill="#870aa0"/>
      <rect id="Rectangle_62" data-name="Rectangle 62" width="30.829" height="22.862" transform="translate(44.338 142.366)" fill="#870aa0"/>
      <rect id="Rectangle_63" data-name="Rectangle 63" width="30.829" height="47.455" transform="translate(44.338 94.911)" fill="#ffafe0"/>
      <rect id="Rectangle_64" data-name="Rectangle 64" width="30.829" height="58.886" transform="translate(44.338 36.024)" fill="#fa1996"/>
      <rect id="Rectangle_65" data-name="Rectangle 65" width="31.104" height="58.063" transform="translate(87.643 107.222)" fill="#870aa0"/>
      <rect id="Rectangle_66" data-name="Rectangle 66" width="31.104" height="58.063" transform="translate(87.643 48.288)" fill="#23c3ff"/>
      <rect id="Rectangle_67" data-name="Rectangle 67" width="31.104" height="60.571" transform="translate(87.643 47.417)" fill="#ffafe0"/>
      <rect id="Rectangle_68" data-name="Rectangle 68" width="31.104" height="11.459" transform="translate(131.353 153.825)" fill="#870aa0"/>
      <rect id="Rectangle_69" data-name="Rectangle 69" width="30.829" height="24.594" transform="translate(131.281 129.203)" fill="#ffafe0"/>
      <rect id="Rectangle_70" data-name="Rectangle 70" width="30.829" height="11.431" transform="translate(131.281 117.772)" fill="#ffafe0"/>
      <rect id="Rectangle_71" data-name="Rectangle 71" width="31.175" height="59.233" transform="translate(0 48.841)" fill="#ffafe0"/>
      <rect id="Rectangle_72" data-name="Rectangle 72" width="31.175" height="48.841" transform="translate(0 0)" fill="#fa1996"/>
    </g>
    <text id="_38_kvinnor_62_män_beviljades_uppstartslån_under_2021" data-name="38% kvinnor
62 % män 
beviljades uppstartslån under 2021" transform="translate(15.941 3160.499)" fill="#870aa0" font-size="23" font-family="SofiaPro-Bold, Sofia Pro" font-weight="700"><tspan x="0" y="0">38% kvinnor</tspan><tspan x="0" y="35">62 % män </tspan><tspan font-size="11" font-family="SofiaPro-Regular, Sofia Pro" font-weight="400"><tspan x="0" y="58">beviljades uppstartslån under 2021</tspan></tspan></text>
  </g>
</svg>
