<svg xmlns="http://www.w3.org/2000/svg" width="547.34" height="301.729" viewBox="0 0 547.34 301.729">
  <g id="Group_115" data-name="Group 115" transform="translate(132.148 -3124)">
    <g id="Group_67" data-name="Group 67" transform="translate(-132.148 3124)">
      <rect id="Rectangle_61" data-name="Rectangle 61" width="56.78" height="105.994" transform="translate(0.112 195.734)" fill="#870aa0"/>
      <rect id="Rectangle_62" data-name="Rectangle 62" width="56.278" height="41.734" transform="translate(80.939 259.89)" fill="#870aa0"/>
      <rect id="Rectangle_63" data-name="Rectangle 63" width="56.278" height="86.63" transform="translate(80.939 173.26)" fill="#ffafe0"/>
      <rect id="Rectangle_64" data-name="Rectangle 64" width="56.278" height="107.497" transform="translate(80.939 65.763)" fill="#fa1996"/>
      <rect id="Rectangle_65" data-name="Rectangle 65" width="56.78" height="105.994" transform="translate(159.994 195.734)" fill="#870aa0"/>
      <rect id="Rectangle_66" data-name="Rectangle 66" width="56.78" height="105.994" transform="translate(159.994 88.15)" fill="#23c3ff"/>
      <rect id="Rectangle_67" data-name="Rectangle 67" width="56.78" height="110.572" transform="translate(159.994 86.561)" fill="#ffafe0"/>
      <rect id="Rectangle_68" data-name="Rectangle 68" width="56.78" height="20.919" transform="translate(239.785 280.809)" fill="#870aa0"/>
      <rect id="Rectangle_69" data-name="Rectangle 69" width="56.278" height="44.896" transform="translate(239.655 235.861)" fill="#ffafe0"/>
      <rect id="Rectangle_70" data-name="Rectangle 70" width="56.278" height="20.867" transform="translate(239.655 215.994)" fill="#ffafe0"/>
      <rect id="Rectangle_71" data-name="Rectangle 71" width="56.91" height="108.129" transform="translate(0 89.159)" fill="#ffafe0"/>
      <rect id="Rectangle_72" data-name="Rectangle 72" width="56.91" height="89.159" transform="translate(0 0)" fill="#fa1996"/>
    </g>
    <text id="_38_kvinnor_62_män_beviljades_uppstartslån_under_2021" data-name="38% kvinnor
62 % män 
beviljades uppstartslån under 2021" transform="translate(132.191 3188.642)" fill="#870aa0" font-size="39" font-family="SofiaPro-Bold, Sofia Pro" font-weight="700"><tspan x="0" y="0">38% kvinnor</tspan><tspan x="0" y="61">62 % män </tspan><tspan font-size="18" font-family="SofiaPro-Regular, Sofia Pro" font-weight="400"><tspan x="0" y="100">beviljades uppstartslån under 2021</tspan></tspan></text>
  </g>
</svg>
