<svg xmlns="http://www.w3.org/2000/svg" viewBox="0 0 150.99 54.36"><defs><style>.cls-1{fill:#fff;}</style></defs><g id="Layer_2" data-name="Layer 2"><g id="logan"><path class="cls-1" d="M94.44,53.6,94.17,35a18.94,18.94,0,1,1,37.88,0V53.53h-9.33V35a9.61,9.61,0,0,0-19.22,0l.27,18.47Z"/><path class="cls-1" d="M75.22,53.26H65.89V34.59a18.94,18.94,0,0,1,37.88,0H94.44a9.61,9.61,0,1,0-19.22,0Z"/><rect class="cls-1" x="65.89" y="16.75" width="9.33" height="17.02"/><path class="cls-1" d="M19.22,54.36A19.22,19.22,0,1,1,38.43,35.14,19.24,19.24,0,0,1,19.22,54.36Zm0-28.55a9.33,9.33,0,1,0,9.33,9.33A9.34,9.34,0,0,0,19.22,25.81Z"/><rect class="cls-1" x="29.36" y="16.46" width="9.07" height="36.8"/><rect class="cls-1" x="46.95" y="1.92" width="9.98" height="51.34"/><line class="cls-1" x1="74.53" y1="16.75" x2="74.53" y2="18.2"/><rect class="cls-1" x="139.76" y="16.09" width="9.92" height="37.17"/><circle class="cls-1" cx="144.68" cy="6.31" r="6.31"/></g></g></svg>