<svg xmlns="http://www.w3.org/2000/svg" width="414.772" height="306.994" viewBox="0 0 414.772 306.994">
  <g id="Group_114" data-name="Group 114" transform="translate(-471.029 -3365.514)">
    <g id="Group_105" data-name="Group 105" transform="translate(-682.135 2667.523)">
      <g id="Group_102" data-name="Group 102" transform="translate(1313.486 698.498)">
        <path id="Path_76" data-name="Path 76" d="M1389.036,698.814l-4.517,70.959a81.377,81.377,0,0,0-59.264,20.208l-46.923-53.418A152.032,152.032,0,0,1,1389.036,698.814Z" transform="translate(-1278.332 -698.498)" fill="#ffafe1" stroke="#ffafe1" stroke-miterlimit="10" stroke-width="1"/>
      </g>
      <g id="Group_103" data-name="Group 103" transform="translate(1261.523 736.562)">
        <path id="Path_77" data-name="Path 77" d="M1313.486,710.811l46.923,53.418a82.011,82.011,0,0,0-7.481,115.61l-53.418,46.923C1243.826,863.371,1250.1,766.492,1313.486,710.811Z" transform="translate(-1261.523 -710.811)" fill="#ffafe1" stroke="#ffafe1" stroke-miterlimit="10" stroke-width="1"/>
      </g>
      <g id="Group_104" data-name="Group 104" transform="translate(1299.51 698.817)">
        <path id="Path_78" data-name="Path 78" d="M1503.738,750.322c55.684,63.391,49.415,160.27-13.976,215.951s-160.27,49.415-215.951-13.976l53.418-46.923a81.92,81.92,0,1,0,66.749-135.818l4.51-70.955A151.989,151.989,0,0,1,1503.738,750.322Z" transform="translate(-1273.811 -698.601)" fill="#870aa0" stroke="#870aa0" stroke-miterlimit="10" stroke-width="1"/>
      </g>
    </g>
    <g id="Group_83" data-name="Group 83" transform="translate(293.846 59.927)">
      <text id="_38_kvinnor_62_män_beviljades_uppstartslån_under_2021" data-name="38% kvinnor
62 % män 
beviljades uppstartslån under 2021" transform="translate(177.184 3383.344)" fill="#870aa0" font-size="44" font-family="SofiaPro-Bold, Sofia Pro" font-weight="700"><tspan x="0" y="0">38% kvinnor</tspan><tspan x="0" y="68">62 % män </tspan><tspan font-size="20" font-family="SofiaPro-Regular, Sofia Pro" font-weight="400"><tspan x="0" y="111">beviljades uppstartslån under 2021</tspan></tspan></text>
    </g>
  </g>
</svg>
