<svg xmlns="http://www.w3.org/2000/svg" width="560.646" height="993.702" viewBox="0 0 560.646 993.702">
  <g id="Group_90" data-name="Group 90" transform="translate(-1255 -1081)">
    <g id="Group_66" data-name="Group 66" transform="translate(1460.873 3406.552) rotate(-107)">
      <path id="Path_44" data-name="Path 44" d="M1787.544,446,1917.07,665.2,1792.526,879.413,1663,660.216Z" transform="translate(0 0)" fill="#870aa0"/>
      <path id="Path_45" data-name="Path 45" d="M1938.852,446H1688l254.07,433.413L2063.4,662.707Z" transform="translate(99.545 0)" fill="#cd9bd7"/>
      <path id="Path_46" data-name="Path 46" d="M1689,704.216h249.088L1813.544,490Z" transform="translate(103.526 175.198)" fill="#ffafe0"/>
    </g>
    <g id="Group_68" data-name="Group 68" transform="matrix(0.966, -0.259, 0.259, 0.966, -379.447, 1802.76)">
      <path id="Path_44-2" data-name="Path 44" d="M1743.786,446,1827.8,588.183l-80.786,138.951L1663,584.951Z" transform="translate(0 0)" fill="#870aa0"/>
      <path id="Path_45-2" data-name="Path 45" d="M1850.715,446H1688l164.8,281.134,78.7-140.567Z" transform="translate(55.787 0)" fill="#cd9bd7"/>
      <path id="Path_46-2" data-name="Path 46" d="M1689,628.951h161.571L1769.786,490Z" transform="translate(58.018 98.183)" fill="#ffafe0"/>
    </g>
  </g>
</svg>
