<svg xmlns="http://www.w3.org/2000/svg" width="100.371" height="190.391" viewBox="0 0 100.371 190.391">
  <g id="Group_89" data-name="Group 89" transform="translate(-292.629 -872.125)">
    <g id="Group_66" data-name="Group 66" transform="translate(378.5 2701.137) rotate(-107)">
      <path id="Path_44" data-name="Path 44" d="M1685.3,446l23.189,39.243-22.3,38.351L1663,484.351Z" transform="translate(0 0)" fill="#870aa0"/>
      <path id="Path_45" data-name="Path 45" d="M1732.909,446H1688l45.486,77.593,21.722-38.8Z" transform="translate(-2.702 0)" fill="#cd9bd7"/>
      <path id="Path_46" data-name="Path 46" d="M1689,528.351h44.594L1711.3,490Z" transform="translate(-2.811 -4.757)" fill="#ffafe0"/>
    </g>
    <g id="Group_78" data-name="Group 78" transform="matrix(0.966, -0.259, 0.259, 0.966, -1423.768, 1017.429)">
      <path id="Path_44-2" data-name="Path 44" d="M1676.3,446l13.83,23.4-13.3,22.872-13.83-23.4Z" transform="translate(0 0)" fill="#870aa0"/>
      <path id="Path_45-2" data-name="Path 45" d="M1714.783,446H1688l27.128,46.277,12.955-23.138Z" transform="translate(-11.701 0)" fill="#cd9bd7"/>
      <path id="Path_46-2" data-name="Path 46" d="M1689,512.872h26.6L1702.3,490Z" transform="translate(-12.17 -20.596)" fill="#ffafe0"/>
    </g>
  </g>
</svg>
